#!OML:ASF E:\emotionWalksFemale\Project 1\Capture day 1\Session 1\Female1.ASF
:FULLY-SPECIFIED
:DEGREES
239
root 8.81491 12.5119 -3.02511 -165.905 -1.82823 -176.169
lowerback 39.0964 2.30661 2.18019
upperback 2.27763 2.82349 1.00097
thorax -16.7749 0.550577 -1.22
lowerneck -8.91513 -2.48649 -6.65831
upperneck -14.1017 -3.86075 6.10284
head -2.81314 -2.41516 3.20979
rclavicle -9.34288e-015 4.17448e-015
rhumerus -46.2386 -4.59367 -76.9077
rradius 37.1896
rwrist 18.7131
rhand -7.67992 -46.937
rfingers 7.12502
rthumb 18.2168 -76.104
lclavicle -9.34288e-015 4.17448e-015
lhumerus -58.9154 30.4513 37.7567
lradius 34.2833
lwrist 3.53809
lhand -13.4705 -52.9015
lfingers 7.12502
lthumb 12.6396 -23.3039
rfemur -67.008 5.16815 27.5243
rtibia 81.7419
rfoot -24.5063 -24.7481
rtoes -1.22961
lfemur -72.6501 2.3144 -19.0369
ltibia 82.2966
lfoot -27.2482 3.32316
ltoes -29.1484
240
root 8.80199 12.4198 -3.07462 -165.416 -1.96319 -176.145
lowerback 39.4199 2.17126 2.42992
upperback 2.30483 2.74721 1.02234
thorax -16.8517 0.489698 -1.29339
lowerneck -9.08984 -2.529 -6.94593
upperneck -14.755 -3.96298 6.41751
head -2.99811 -2.50804 3.39287
rclavicle 1.98785e-015 -7.7526e-015
rhumerus -43.2893 -2.43209 -78.7024
rradius 37.5725
rwrist 19.4382
rhand -7.40207 -46.6419
rfingers 7.12502
rthumb 18.4841 -75.7837
lclavicle 1.98785e-015 -7.7526e-015
lhumerus -56.4357 32.2272 40.5246
lradius 32.7683
lwrist -0.124619
lhand -13.7844 -52.6899
lfingers 7.12502
lthumb 12.337 -23.0739
rfemur -68.0693 4.83 27.6092
rtibia 83.0086
rfoot -25.3621 -24.6634
rtoes -1.73836
lfemur -73.8029 2.44158 -19.2148
ltibia 83.4763
lfoot -27.9799 2.72649
ltoes -27.6118
241
root 8.78865 12.346 -3.11999 -165.06 -2.22631 -176.127
lowerback 39.8808 1.93483 2.83315
upperback 2.29701 2.60412 0.964207
thorax -17.0112 0.385458 -1.5061
lowerneck -9.71786 -2.61629 -6.63623
upperneck -14.9569 -4.16656 6.26373
head -2.95224 -2.65603 3.26849
rclavicle 4.37326e-015 1.78906e-015
rhumerus -40.1972 -0.484961 -79.8461
rradius 37.7581
rwrist 20.422
rhand -6.4233 -46.8563
rfingers 7.12502
rthumb 19.4254 -75.9059
lclavicle 4.37326e-015 1.78906e-015
lhumerus -53.2093 32.7585 44.4646
lradius 32.2093
lwrist -1.75166
lhand -14.7363 -53.3708
lfingers 7.12502
lthumb 11.4191 -23.7017
rfemur -68.871 4.29617 27.7607
rtibia 84.1955
rfoot -26.5182 -24.3474
rtoes -1.42306
lfemur -74.7005 2.44027 -19.381
ltibia 84.5397
lfoot -28.5724 2.36417
ltoes -26.8222
242
root 8.77644 12.2833 -3.16402 -164.798 -2.49516 -176.23
lowerback 40.4667 1.67767 3.13742
upperback 2.23939 2.39452 0.843503
thorax -17.2826 0.257238 -1.70593
lowerneck -10.198 -2.63745 -6.54832
upperneck -15.1591 -4.23853 6.38514
head -2.93516 -2.73024 3.28859
rclavicle -7.35503e-015 -2.38542e-015
rhumerus -37.1388 1.0963 -80.3391
rradius 37.7978
rwrist 21.5344
rhand -5.41599 -47.2323
rfingers 7.12502
rthumb 20.3937 -76.1814
lclavicle -7.35503e-015 -2.38542e-015
lhumerus -49.5894 32.1226 49.1021
lradius 32.4918
lwrist -1.63486
lhand -15.5912 -54.3861
lfingers 7.12502
lthumb 10.5945 -24.6731
rfemur -69.5189 3.6631 27.8451
rtibia 85.282
rfoot -27.5109 -23.9131
rtoes -0.700083
lfemur -75.3848 2.3668 -19.6565
ltibia 85.4912
lfoot -29.1501 2.26088
ltoes -26.7532
243
root 8.7657 12.197 -3.20239 -164.345 -2.33964 -176.326
lowerback 40.7983 1.66047 3.0888
upperback 2.17961 2.33254 0.689027
thorax -17.4749 0.223268 -1.8277
lowerneck -10.735 -2.66675 -6.53423
upperneck -15.3877 -4.30982 6.68111
head -2.91398 -2.80981 3.38342
rclavicle 2.48481e-015 1.0138e-014
rhumerus -33.6545 2.24132 -80.2809
rradius 37.2211
rwrist 22.6649
rhand -5.31194 -47.4135
rfingers 7.12502
rthumb 20.4937 -76.3519
lclavicle 2.48481e-015 1.0138e-014
lhumerus -45.7486 31.1684 53.6353
lradius 33.0422
lwrist -1.2668
lhand -15.2131 -52.6348
lfingers 7.12502
lthumb 10.9593 -22.9409
rfemur -70.5867 3.42166 27.8729
rtibia 86.3735
rfoot -28.0373 -23.3342
rtoes 0.749776
lfemur -76.4257 2.63939 -20.0062
ltibia 86.5206
lfoot -29.5379 2.32368
ltoes -27.3262
